<svg xmlns="http://www.w3.org/2000/svg" viewBox="0 0 77.54 100.64"><defs><style>.cls-1{fill:#1a3c7d;}.cls-2{fill:#fbfbfb;}</style></defs><g id="Capa_2" data-name="Capa 2"><g id="Capa_1-2" data-name="Capa 1"><path d="M45.57,55.32v1.84c0,3,0,6.07,0,9.11a.94.94,0,0,0,.64,1,17.09,17.09,0,0,1,9.39,10.14,17.55,17.55,0,0,1-14.18,23.08A17.23,17.23,0,0,1,22.72,87.27,17.46,17.46,0,0,1,32.5,67.49a1.38,1.38,0,0,0,1-1.53c0-2.35,0-4.71,0-7.25l2.8,2.66c.23.22.15.5.15.76,0,2.16,0,4.33,0,6.5,0,.52-.18.68-.64.82A13.78,13.78,0,0,0,25.73,79.88a14.12,14.12,0,1,0,27.66,5.43c.65-5.92-1.28-10.75-6.31-14.16a11.51,11.51,0,0,0-3.88-1.7c-.51-.11-.63-.35-.63-.83,0-3.35,0-6.69,0-10a.92.92,0,0,1,.26-.72c.86-.87,1.71-1.75,2.57-2.63Z"/><path d="M24.58,46.84v7.92c0,3.59,0,7.18,0,10.77,0,.48-.09.7-.63.65a10.22,10.22,0,0,0-1.66,0c-.6.06-.8-.11-.79-.77,0-6.07,0-12.13,0-18.2,0-1.32,0-2.65,0-4,0-.41.12-.52.53-.53,2.89-.08,2.89-.09,5,1.91l9.54,9.25c.87.86.87.85,1.73,0,3.76-3.56,7.54-7.1,11.25-10.71.76-.74,1.57-.52,2.4-.57.3,0,.24.25.24.43,0,.65,0,1.3,0,2,0,6.76,0,13.53,0,20.3,0,.77-.22,1-1,.91a6.94,6.94,0,0,0-1.44,0c-.5,0-.65-.11-.65-.62,0-5.52,0-11,0-16.55v-.94c-.63.57-1.15,1-1.64,1.49Q43.82,53,40.22,56.45a5.15,5.15,0,0,1-1.48,1,3,3,0,0,1-3.33-.31c-1.49-1.16-2.76-2.55-4.12-3.84C29.08,51.22,26.9,49.09,24.58,46.84Z"/><path d="M51.59,22.19c0,3.67,0,7.33,0,11,0,.62-.19.78-.77.73a13.52,13.52,0,0,0-1.8,0c-.38,0-.5-.11-.5-.5,0-1.13,0-2.26,0-3.39,0-6,0-12,0-18.06A8.9,8.9,0,0,0,35.83,3.81,8.53,8.53,0,0,0,30.4,12.1c0,6.94,0,13.88,0,20.81,0,.57-.11.83-.74.77a9.09,9.09,0,0,0-1.73,0c-.51,0-.63-.14-.63-.64q0-7.66,0-15.32c0-1.78,0-3.56,0-5.35A12.23,12.23,0,0,1,37.63.16,12,12,0,0,1,51.54,10.85c.17,2.09.05,4.19.06,6.29,0,1.68,0,3.37,0,5.05Z"/><path d="M63,66.2c-2.43,0-4.86,0-7.29,0-.51,0-.67-.12-.63-.63a12,12,0,0,0,0-1.8c0-.52.14-.64.64-.64,4.64,0,9.29-.06,13.94,0a4.85,4.85,0,0,0,4.42-6.87,4.38,4.38,0,0,0-3.53-2.55c-3.26-.63-6.52-1.24-9.78-1.88-3.87-.76-6.21-3.31-6.37-6.94A7.62,7.62,0,0,1,60.12,37a11.17,11.17,0,0,1,3.2-.48q6.36,0,12.71,0c.52,0,.66.15.63.65a12.56,12.56,0,0,0,0,1.94c0,.58-.16.67-.68.67q-6.6,0-13.22,0a5.5,5.5,0,0,0-3.91,1.4,4.31,4.31,0,0,0-1.26,4.55,4.07,4.07,0,0,0,3.31,3c3.45.81,6.95,1.31,10.42,2a7.49,7.49,0,0,1,6.16,8.57,7.76,7.76,0,0,1-7.78,7c-2.24,0-4.48,0-6.72,0Z"/><path d="M8.71,42.28a.81.81,0,0,0,0-.15"/><path d="M12.73,46.06h0"/><path d="M12,43.48a14.79,14.79,0,0,1-.05-2.22,7.37,7.37,0,0,0,0-.94c-.05-.48.14-.61.61-.6,2.43,0,4.86,0,7.29,0,3.35,0,6.7,0,10,0,.55,0,.72-.15.68-.69a10,10,0,0,1,0-1.73c0-.63-.13-.85-.82-.84-4.81,0-9.63,0-14.44,0H15.2c-4.84,0-9.68,0-14.52,0-.53,0-.73.11-.67.67A10.73,10.73,0,0,1,0,39c0,.55.11.73.7.72,2.45,0,4.91,0,7.37,0,.47,0,.64.12.61.6a10.94,10.94,0,0,0,0,1.81l0,4.72c0,2.26,0,4.52,0,6.79a5.93,5.93,0,0,0,3.81,5.69c1.87.76,3.83.63,5.77.65.31,0,.27-.22.27-.4,0-.73,0-1.45,0-2.17,0-.51-.18-.58-.62-.58-1,0-2,0-3-.09a3,3,0,0,1-3-3.34c0-2.17,0-4.33,0-6.5"/><path d="M50,83.17A10.73,10.73,0,0,1,39.57,93.9,10.45,10.45,0,0,1,28.83,83.33a10.64,10.64,0,0,1,10.3-10.72A10.49,10.49,0,0,1,50,83.17ZM39.32,75.54a7.74,7.74,0,0,0-7.61,7.75,7.57,7.57,0,0,0,7.5,7.65A7.66,7.66,0,0,0,47,83.24,7.55,7.55,0,0,0,39.32,75.54Z"/><path d="M36.47,49.88c-1.07-.89-1.94-1.75-2.8-2.61a.86.86,0,0,1-.2-.67q0-18.41,0-36.83c0-1,.38-1.63,1.1-1.81a1.56,1.56,0,0,1,1.68.72A2.43,2.43,0,0,1,36.44,10q0,8.67,0,17.33,0,10.92,0,21.82Z"/><path d="M45.46,10.67v.86c0,10.07,0,20.14,0,30.2,0,.66-.16.89-.83.81s-1.66.3-2.06-.16-.12-1.33-.13-2q0-13.14,0-26.29A1.49,1.49,0,0,1,43,12.77C43.81,12.13,44.57,11.44,45.46,10.67Z"/><path class="cls-1" d="M12,69.57a1,1,0,0,1,.29.89c0,1.32,0,2.65,0,4,0,.28,0,.61.4.61s.39-.33.39-.61c0-1.28,0-2.56,0-3.83,0-.12,0-.24,0-.36s0-.57.28-.58.3.33.3.56c0,1.18,0,2.36,0,3.54v.79c0,.27.06.47.39.49s.45-.19.45-.5v-3.9c0-.22,0-.43,0-.65s0-.39.21-.4.27.24.28.43c0,.57,0,1.15,0,1.73,0,.91,0,1.83,0,2.74,0,.25-.07.59.33.6s.33-.35.33-.58c0-3,0-6,0-9,0-.62,0-1.25,0-1.87,0-.35.11-.48.46-.47.67,0,1.35,0,2,0,.29,0,.43.06.41.4,0,.67,0,1.35,0,2,0,.44-.18.54-.56.52s-.63,0-.93,0c-.66-.08-.89.16-.88.83,0,2.41,0,4.82,0,7.23,0,.89,0,.84,1,.9.74,0,.75-.36.74-.89,0-1.54,0-3.08,0-4.62,0-.48.11-.61.6-.6,1.39,0,2.79,0,4.18,0,.48,0,.74.11.71.69-.06,1,0,2.07,0,3.11,0,.48-.15.6-.62.6-1.09,0-1.08,0-1.07-1.1,0-.77,0-1.54,0-2.31,0-.37-.12-.52-.51-.51-.74,0-1.49,0-2.23,0-.47,0-.62.18-.6.66,0,1.54,0,3.08.06,4.62,0,.51-.15.74-.69.71s-1.25,0-1.87,0c-.4,0-.51.12-.5.49,0,1.11,0,2.22,0,3.32,0,.63,1.05,1.66,1.72,1.55,2-.32,2.87,1.35,4.13,2.31.2.15.12.41.12.62q0,4.15,0,8.31c0,.39,0,.62.53.53a.67.67,0,0,1,.8.71.64.64,0,0,1-.63.74.74.74,0,0,1-.86-.66c-.48-2-.18-4.11-.23-6.16,0-1.09,0-1.09-1.11-1.1s-2.46,0-3.68,0c-.45,0-.59.13-.58.57,0,1.3,0,2.6,0,3.9a1.76,1.76,0,0,1-.33,1.07c-.43.67-1.1,1.19-1.05,2.13,0,.41-.41.57-.81.52a.66.66,0,0,1-.66-.71c0-.41.25-.72.69-.67s.55-.2.79-.46a4,4,0,0,0,1-3.26c-.07-.79,0-1.58,0-2.38,0-.14.06-.35,0-.42-.56-.61-1.29-.13-1.94-.27-.37-.08-.42.21-.42.5,0,.63,0,1.25,0,1.88a2.34,2.34,0,0,1-.68,1.89,2,2,0,0,0-.73,1.49c0,.39-.33.62-.75.59A.71.71,0,0,1,10.62,91a2.67,2.67,0,0,0,1.73-2,1.47,1.47,0,0,1,0-.21,3.92,3.92,0,0,0-1.74-4.32,1,1,0,0,1-.41-1c0-2.43,0-4.86,0-7.29,0-.58-.17-.79-.74-.74s-1.07-.08-1.55.37a.72.72,0,0,1-1-.12.63.63,0,0,1,0-.86c.27-.33.7-.45,1-.19.62.61,1.35.4,2,.4,2,0,2,0,2-2l0-3.4S11.93,69.64,12,69.57Zm4.74,16.07h0c1.25,0,2.5,0,3.75,0,.29,0,.49,0,.52-.4.08-1.17,0-2.26-1.18-2.9a2.63,2.63,0,0,1-.62-.49,1.82,1.82,0,0,0-1.69-.57A1.5,1.5,0,0,1,16,80.73a2.53,2.53,0,0,0-2.52-1c-.09,0-.19,0-.29,0-.46.06-.56-.17-.55-.59,0-.77,0-1.54,0-2.31,0-1.41,0-1.39-1.39-1.38-.46,0-.6.13-.59.62a61.24,61.24,0,0,1,0,6.21A2.94,2.94,0,0,0,12,85.2l.06,0a1.36,1.36,0,0,0,1.17.41C14.38,85.61,15.56,85.64,16.74,85.64ZM14.93,77.5h0c0-.53,0-1.06,0-1.59,0-.32-.14-.43-.42-.44l-.93,0c-.34,0-.52.15-.51.53,0,.87,0,1.74,0,2.6s0,.78,1.24.82c.73,0,.6-.41.6-.82ZM23,71.21c0-.43,0-.87,0-1.3s-.08-.45-.4-.46-.43.12-.43.43c0,.86,0,1.73,0,2.59,0,.32.14.42.43.42s.41-.17.4-.46S23,71.61,23,71.21Z"/><path d="M27.49,53.42l2.88,2.84a.82.82,0,0,1,.17.67c0,2.91,0,5.82,0,8.73,0,.46-.14.58-.57.55-.79,0-1.82.25-2.31-.14s-.15-1.48-.15-2.26c0-3.19,0-6.39,0-9.59Z"/><path class="cls-1" d="M60.89,34c-2.19,0-4.38,0-6.57,0-.53,0-.7-.13-.69-.69,0-1.76,0-3.51,0-5.27,0-.18-.18-.57.24-.52s.83-.12.83.52c0,1.28,0,2.55,0,3.83,0,.57.18.73.74.72,4,0,7.9,0,11.84,0,.61,0,.76.19.76.78s-.25.69-.76.68c-2.15,0-4.29,0-6.43,0Z"/><path class="cls-1" d="M61.65,10.66c.21,0,.29.14.37.29.77,1.46,1.54,2.93,2.33,4.38.19.35.14.55-.24.72-.84.4-1.68.82-2.51,1.26-.37.2-.6.17-.81-.22-.77-1.46-1.57-2.92-2.36-4.37-.1-.18-.2-.35.06-.48l3-1.53Z"/><path class="cls-1" d="M53.35,22.12a6.79,6.79,0,0,1,2.48-4.63,8.71,8.71,0,0,1,2-1.29c.35-.17.39-.35.2-.67-.38-.61-.72-1.25-1.1-1.86-.18-.29-.16-.51.16-.63s.59-.47.85,0c.57,1,1.12,2.07,1.68,3.1.24.44-.14.48-.38.59a8.69,8.69,0,0,0-3.11,2,4.87,4.87,0,0,0-1.3,2.13C54.63,21.65,54.34,22.19,53.35,22.12Z"/><path class="cls-1" d="M59.54,32a5.07,5.07,0,0,1-1.79,0c-.56-.24-.38-1.06-.66-1.57-.38-.73-.72-1.47-1.1-2.19-.18-.35-.14-.55.24-.73s.51-.09.66.25a26.11,26.11,0,0,1,1.31,2.72c.11.38.35.41.65.4.72,0,1.44,0,2.16,0s.5.4.56.76-.2.46-.52.46H59.54Z"/><path class="cls-1" d="M52.8,24.7a2.06,2.06,0,0,1,2.1-2,2.13,2.13,0,0,1,2,2.12,2.07,2.07,0,0,1-2.12,2A2,2,0,0,1,52.8,24.7Zm3.29.13a1.25,1.25,0,0,0-1.2-1.28,1.17,1.17,0,0,0-1.24,1.12A1.18,1.18,0,0,0,54.74,26,1.29,1.29,0,0,0,56.09,24.83Z"/><path class="cls-1" d="M20.44,78a2,2,0,1,1-4.07-.19,2,2,0,1,1,4.07.19Zm-2.1,1.16A1.25,1.25,0,0,0,19.67,78a1.29,1.29,0,0,0-1.3-1.28,1.25,1.25,0,0,0,0,2.5Z"/><path class="cls-1" d="M66.18,17c0,.05-.14.12-.27.18l-5.24,2.69c-.38.19-.45-.14-.57-.35s-.34-.47,0-.66c1.75-.88,3.5-1.77,5.26-2.64C65.71,16,66.21,16.48,66.18,17Z"/><path class="cls-1" d="M56.81,22.44c-.29,0-.75-.58-.67-.86a6.09,6.09,0,0,1,3.65-4c.13,0,.3-.13.39,0s-.1.31-.22.39a7.12,7.12,0,0,0-2.34,2.68,6,6,0,0,0-.54,1.4C57,22.24,57,22.42,56.81,22.44Z"/><path class="cls-1" d="M64,23.91c0,.17-.13.24-.26.31-.94.47-1.89.92-2.82,1.42-.46.24-.56-.08-.75-.37s.07-.46.29-.57c.88-.43,1.76-.86,2.65-1.27A.59.59,0,0,1,64,23.91Z"/><path class="cls-1" d="M55.94,5.9c.2,0,.25.11.31.24.53,1.05,1,2.11,1.6,3.15.17.33,0,.46-.22.61s-.42,0-.54-.25c-.52-1-1-2-1.58-3C55.22,6.12,55.62,6,55.94,5.9Z"/><path class="cls-1" d="M60.58,10c0,.24-.12.31-.28.39l-2.58,1.26c-.3.15-.47.08-.63-.21s0-.43.26-.54L60,9.6C60.47,9.37,60.44,9.8,60.58,10Z"/><path class="cls-1" d="M19,90.52c0,.77,0,1.54,0,2.31,0,.18.06.43-.22.45s-.32-.24-.33-.46c0-1.59,0-3.18,0-4.77,0-.2,0-.51.27-.51s.25.32.25.52c0,.82,0,1.64,0,2.46Z"/><path class="cls-1" d="M17.32,87.57c.27.14.23.4.23.63,0,1.51,0,3,0,4.53,0,.2.05.51-.24.51s-.24-.3-.24-.5c0-1.54,0-3.07,0-4.61C17.11,87.93,17.06,87.69,17.32,87.57Z"/><path class="cls-1" d="M61.83,20.2a.5.5,0,0,1,.44-.58c.32-.07.29.24.34.43l.63,2.05a.62.62,0,0,1-.52.85c-.44.11-.4-.33-.46-.57C62.09,21.66,62,20.93,61.83,20.2Z"/><path class="cls-1" d="M68.8,21.3a.29.29,0,0,1-.18.28l-1.92,1c-.36.17-.51,0-.66-.31s0-.48.28-.6c.58-.3,1.15-.59,1.74-.86A.53.53,0,0,1,68.8,21.3Z"/><path class="cls-1" d="M54.75,5.22a3.71,3.71,0,0,1-.88-1.49c0-.19.88-.78,1.13-.75a7.39,7.39,0,0,1,.91,1.5C55.91,4.65,55,5.23,54.75,5.22Z"/><path class="cls-1" d="M57.18,6.08a.34.34,0,0,1,.4.21L59,8.79a.29.29,0,0,1-.13.47c-.19.11-.39.14-.5-.07a28,28,0,0,1-1.45-2.7C56.79,6.19,57,6.13,57.18,6.08Z"/><path class="cls-1" d="M20.3,90.48c0,.76,0,1.53,0,2.3,0,.19.09.49-.25.49s-.22-.27-.22-.45c0-1.58,0-3.17,0-4.75,0-.18,0-.48.19-.48s.24.31.25.51c0,.79,0,1.58,0,2.38Z"/><path class="cls-1" d="M64.63,18.47c.19,0,.25.18.31.3l1,1.91c.08.16.22.34,0,.49a.41.41,0,0,1-.54,0,4.35,4.35,0,0,1-1.14-2.27C64.22,18.67,64.4,18.51,64.63,18.47Z"/><path class="cls-1" d="M11,69.62c-.55,0-.87-.28-.87-.73a.7.7,0,0,1,.82-.7.69.69,0,0,1,.75.77C11.72,69.44,11.37,69.58,11,69.62Z"/><path class="cls-1" d="M63.31,18.93c.19,0,.25.14.31.27.29.63.58,1.26.86,1.89.09.19.11.39-.08.52s-.34-.08-.45-.21a3.23,3.23,0,0,1-.86-1.92C63.08,19.27,63.07,19,63.31,18.93Z"/><path class="cls-1" d="M11.21,71.14c0,.42-.25.57-.58.6a.59.59,0,0,1-.72-.6c0-.42.33-.57.66-.6S11.14,70.81,11.21,71.14Z"/><path class="cls-1" d="M10.64,72.52c.46,0,.58.34.62.67a.46.46,0,0,1-.51.55c-.35,0-.68-.12-.69-.55A.63.63,0,0,1,10.64,72.52Z"/><path d="M29,42.7c1.56-.11,1.56-.11,1.46,1.16A11.21,11.21,0,0,1,29,42.7Z"/><path class="cls-2" d="M14.93,77.5v1.08c0,.41.13.85-.6.82-1.23,0-1.23,0-1.24-.82s0-1.73,0-2.6c0-.38.17-.52.51-.53l.93,0c.28,0,.44.12.42.44,0,.53,0,1.06,0,1.59Z"/></g></g></svg>